<?xml version="1.0" encoding="UTF-8" standalone="no"?>
<!-- Created with Inkscape (http://www.inkscape.org/) -->
<svg
   xmlns:svg="http://www.w3.org/2000/svg"
   xmlns="http://www.w3.org/2000/svg"
   version="1.0"
   width="100"
   height="100"
   id="svg2">
  <defs
     id="defs4" />
  <path
     d="M 43.570312,24.929688 L 43.570312,43.773438 L 54.046875,43.773438 C 56.765597,43.773464 58.582001,43.363308 59.496094,42.542969 C 60.714811,41.464872 61.394498,39.566437 61.535156,36.847656 L 62.835937,36.847656 L 62.835937,53.441406 L 61.535156,53.441406 C 61.206998,51.121113 60.878874,49.632833 60.550781,48.976563 C 60.128875,48.156272 59.437469,47.511741 58.476562,47.042969 C 57.515596,46.574242 56.039035,46.339868 54.046875,46.339844 L 43.570312,46.339844 L 43.570312,62.054688 C 43.570297,64.164069 43.664047,65.44727 43.851562,65.904297 C 44.039047,66.361332 44.367172,66.724613 44.835937,66.994141 C 45.304671,67.263675 46.195295,67.39844 47.507812,67.398438 L 55.59375,67.398438 C 58.289033,67.39844 60.246062,67.210941 61.464844,66.835938 C 62.683559,66.460941 63.855433,65.722661 64.980469,64.621094 C 66.433556,63.167976 67.921836,60.976572 69.445312,58.046875 L 70.851562,58.046875 L 66.738281,70 L 30,70 L 30,68.699219 L 31.6875,68.699219 C 32.812496,68.69922 33.878901,68.429689 34.886719,67.890625 C 35.636712,67.515628 36.146477,66.953128 36.416016,66.203125 C 36.685539,65.45313 36.820304,63.917975 36.820312,61.597656 L 36.820312,30.625 C 36.820304,27.601605 36.515617,25.738326 35.90625,25.035156 C 35.062493,24.097702 33.656245,23.628953 31.6875,23.628906 L 30,23.628906 L 30,22.328125 L 66.738281,22.328125 L 67.265625,32.769531 L 65.894531,32.769531 C 65.402307,30.261759 64.857385,28.539104 64.259766,27.601563 C 63.662074,26.664106 62.777309,25.949263 61.605469,25.457031 C 60.667937,25.105514 59.015594,24.929733 56.648437,24.929688 L 43.570312,24.929688 z "
     style="font-size:72px;font-style:normal;font-weight:normal;fill:black;fill-opacity:1;stroke:none;stroke-width:1px;stroke-linecap:butt;stroke-linejoin:miter;stroke-opacity:1;font-family:Times New Roman"
     id="text1939" />
</svg>
