<?xml version="1.0" encoding="UTF-8" standalone="no"?>
<svg
   xmlns:svg="http://www.w3.org/2000/svg"
   xmlns="http://www.w3.org/2000/svg"
   version="1.0"
   width="100"
   height="100"
   >
  
  <path
     d="M 65.753906,30.203125 C 65.753869,27.343793 65.290979,25.533248 64.365234,24.771485 C 63.439418,24.009812 61.570279,23.628953 58.757812,23.628907 L 58.757812,22.328125 L 79.394531,22.328125 L 79.394531,23.628907 C 76.441358,23.722703 74.554641,24.191453 73.734375,25.035157 C 72.914018,25.878951 72.503862,27.871136 72.503906,31.011719 L 72.503906,61.316407 C 72.503862,64.457037 72.914018,66.449223 73.734375,67.292969 C 74.554641,68.136721 76.441358,68.605471 79.394531,68.699219 L 79.394531,70 L 58.757812,70 L 58.757812,68.699219 C 61.781217,68.605471 63.70309,68.130862 64.523437,67.275391 C 65.343713,66.419926 65.753869,64.4336 65.753906,61.316407 L 65.753906,33.964844 L 43.640625,62.300782 C 43.664047,64.33985 43.798813,65.705083 44.044922,66.396485 C 44.291,67.087894 44.865218,67.632815 45.767578,68.03125 C 46.669904,68.42969 48.269511,68.652346 50.566406,68.699219 L 50.566406,70 L 30,70 L 30,68.699219 C 32.953121,68.605471 34.839837,68.136721 35.660156,67.292969 C 36.480461,66.449223 36.890617,64.457037 36.890625,61.316407 L 36.890625,31.011719 C 36.890617,27.871136 36.480461,25.878951 35.660156,25.035157 C 34.839837,24.191453 32.953121,23.722703 30,23.628907 L 30,22.328125 L 50.566406,22.328125 L 50.566406,23.628907 C 47.589825,23.722703 45.691389,24.191453 44.871094,25.035157 C 44.050766,25.878951 43.64061,27.871136 43.640625,31.011719 L 43.640625,58.46875 L 65.753906,30.203125 z "
     id="text1974" />
</svg>
